<svg xmlns="http://www.w3.org/2000/svg" width="190.121" height="190.186" viewBox="0 0 190.121 190.186"><defs><style>.a{fill:#ef4a6a;}.b{fill:#fad704;}.c{fill:#80c462;}.d{fill:#70c4ee;}</style></defs><g transform="translate(-157 -706.215)"><g transform="translate(163.455 714.893)"><path class="a" d="M30.4,90.538a7.178,7.178,0,0,1-6.662-9.831c3.225-8.093,9.2-17.378,16.4-25.474A97.679,97.679,0,0,1,70.578,31.926a7.173,7.173,0,1,1,6.176,12.949C56.993,54.3,42.327,72.81,37.063,86.018A7.176,7.176,0,0,1,30.4,90.538Z" transform="translate(-23.224 -31.226)"/></g><g transform="translate(157 778.563)"><path class="b" d="M9.6,311.128a7.176,7.176,0,0,1-6.946-5.4C-1.2,290.58-.175,271.865,1.485,265.642a7.173,7.173,0,0,1,13.862,3.7c-1.062,3.983-1.954,20.422,1.21,32.842A7.18,7.18,0,0,1,9.6,311.128Z" transform="translate(0 -260.316)"/></g><g transform="translate(165.953 832.968)"><path class="c" d="M42.836,476.732a7.171,7.171,0,0,1-6.3-3.741l-3.44-6.309a7.173,7.173,0,0,1,12.6-6.867l3.44,6.309a7.176,7.176,0,0,1-6.292,10.609Z" transform="translate(-32.215 -456.074)"/></g><g transform="translate(190.591 706.215)"><path class="d" d="M182.3,190.186a94.136,94.136,0,0,1-58.694-20.271,7.173,7.173,0,0,1,8.862-11.283A79.919,79.919,0,0,0,182.3,175.84,80.747,80.747,0,1,0,163.978,16.433a7.173,7.173,0,1,1-3.242-13.976A95.561,95.561,0,0,1,182.3,0a95.093,95.093,0,0,1,67.241,162.334A94.471,94.471,0,0,1,182.3,190.186Z" transform="translate(-120.865 0)"/></g></g></svg>