<svg xmlns="http://www.w3.org/2000/svg" width="121.396" height="81.025" viewBox="0 0 121.396 81.025"><defs><style>.a{fill:#71beeb;fill-rule:evenodd;}</style></defs><path class="a" d="M118.465,6.752a3.391,3.391,0,1,1,2.9-3.818A3.387,3.387,0,0,1,118.465,6.752ZM117.607.439a2.98,2.98,0,1,0,3.35,2.55A2.979,2.979,0,0,0,117.607.439ZM119.9,4.9c-.149.02-.242.018-.429.044-.4.054-.534-.23-.581-.575l-.041-.3c-.026-.192-.055-.4-.247-.489-.13-.056-.208-.059-.678,0-.331.045-.456.1-.429.293l.033.245a3.31,3.31,0,0,0,.1.591.215.215,0,0,0,.259.145c.077-.01.15-.045.227-.055a.155.155,0,0,1,.175.142.185.185,0,0,1-.182.2c-.2.027-.4,0-.649.035s-.4.108-.635.14a.185.185,0,0,1-.23-.145.156.156,0,0,1,.131-.184c.076-.011.156,0,.233-.008a.215.215,0,0,0,.211-.209,3.5,3.5,0,0,0-.057-.6L116.961,3a3.467,3.467,0,0,0-.1-.592.215.215,0,0,0-.259-.145c-.077.011-.15.045-.227.055a.155.155,0,0,1-.176-.142.185.185,0,0,1,.183-.2c.283-.039.529-.019.774-.052.407-.055.668-.145.879-.173a1.425,1.425,0,0,1,.753.049.8.8,0,0,1,.442.629c.068.5-.19.754-.64.893v.009c.5-.01.625.257.687.713l.031.23c.03.221.052.35.32.313.072-.01.147-.035.219-.044a.173.173,0,0,1,.215.147A.185.185,0,0,1,119.9,4.9Zm-1.291-1.852a.536.536,0,0,0,.177-.527c-.062-.456-.409-.535-.836-.477-.532.073-.678.185-.653.363l.106.782c.016.115.031.123.166.1l.392-.054A1.555,1.555,0,0,0,118.612,3.052Zm-3.891,15.372-5.281,6.952a7.553,7.553,0,0,1-1.006,1.079l.591,4.347a7.539,7.539,0,1,1-14.94,2.037l-.654-4.811c-.194-.122-.386-.25-.572-.392l-6.944-5.286a7.545,7.545,0,0,1,9.127-12.016l4.361,3.32,3.317-4.366a7.541,7.541,0,1,1,12,9.136ZM83.773,37.838c-.02.053-.041.1-.061.157a7.536,7.536,0,0,1-11.582,3.256l-5.668-4.383a7.538,7.538,0,0,1-14.973,1.739L49.235,22.021a7.537,7.537,0,0,1,12.106-6.968c.048.034.1.067.143.1l5.473,4.293A7.538,7.538,0,0,1,81.907,17.5l2.268,16.689a7.52,7.52,0,0,1-.378,3.575C83.789,37.792,83.781,37.816,83.773,37.838ZM43.5,47.365a7.539,7.539,0,0,1-8.486-6.46L32.752,24.248a7.539,7.539,0,1,1,14.94-2.037l2.263,16.657A7.547,7.547,0,0,1,43.5,47.365ZM25.421,32.878l-.965.131L25.7,42.175a7.539,7.539,0,1,1-14.939,2.037L9.517,35.046l-.961.131A7.547,7.547,0,0,1,6.523,20.22l16.866-2.3a7.547,7.547,0,0,1,2.032,14.957Zm.622,17.63,16.866-2.3a7.547,7.547,0,0,1,2.032,14.956l-.965.132,1.245,9.163A7.539,7.539,0,1,1,30.282,74.5l-1.245-9.163-.961.131a7.547,7.547,0,0,1-2.032-14.957Zm29.639.379A7.54,7.54,0,0,1,61.7,45.659c.056-.009.112-.015.167-.023s.112-.016.168-.022a7.532,7.532,0,0,1,7.2,3.425L80.2,64.238A7.542,7.542,0,1,1,68.279,73.48L65.047,69l-1.919,5.183a7.539,7.539,0,1,1-13.954-5.714Zm31.291-8.631c.4-.054.675-.081,1.176-.159l6.472-.882a10.143,10.143,0,0,1,11.417,8.691c.676,4.977-3.924,9.812-8.88,11.31l.583,4.293A7.539,7.539,0,1,1,82.8,67.545L80.508,50.661A7.468,7.468,0,0,1,86.973,42.256Z" transform="translate(0 0)"/></svg>